<?xml version="1.0" standalone="no"?>
<!DOCTYPE svg PUBLIC "-//W3C//DTD SVG 20010904//EN"
 "http://www.w3.org/TR/2001/REC-SVG-20010904/DTD/svg10.dtd">
<svg version="1.0" xmlns="http://www.w3.org/2000/svg"
 width="512.000000pt" height="512.000000pt" viewBox="0 0 512.000000 512.000000"
 preserveAspectRatio="xMidYMid meet">
<metadata>
Created by potrace 1.14, written by Peter Selinger 2001-2017
</metadata>
<g transform="translate(0.000000,512.000000) scale(0.100000,-0.100000)"
fill="#000000" stroke="none">
<path d="M1740 4780 c-19 -4 -53 -11 -75 -14 -68 -9 -196 -46 -290 -83 -250
-98 -471 -260 -639 -468 -99 -122 -130 -170 -195 -299 -71 -141 -97 -210 -135
-362 -43 -171 -45 -209 -42 -1094 1 -465 5 -861 9 -880 4 -19 9 -51 12 -70 3
-19 12 -62 21 -95 77 -306 220 -561 434 -776 73 -73 238 -209 254 -209 3 0 22
-12 43 -26 99 -67 327 -159 468 -188 39 -8 86 -18 105 -22 19 -4 375 -9 790
-10 697 -2 763 -1 866 16 319 54 610 206 844 441 124 125 220 255 293 399 67
133 79 163 116 285 66 216 64 185 67 1120 3 867 0 937 -36 1087 -6 24 -13 52
-15 62 -26 111 -110 311 -183 431 -61 103 -152 216 -252 315 -217 215 -476
353 -790 423 -91 20 -124 21 -865 23 -423 1 -786 -2 -805 -6z"/>
</g>
</svg>
